<svg width="151" height="25" viewBox="0 0 151 25" fill="none" xmlns="http://www.w3.org/2000/svg">
<path d="M24.0886 0.758118H0V24.8468H24.0886V0.758118Z" fill="black"/>
<path d="M14.5926 6.11603H18.7453V17.0496L16.1027 19.4889H8.00055L5.35791 17.035V6.11603H9.51062V15.7137L10.0769 16.28H14.0263L14.5926 15.7137V6.11603Z" fill="white"/>
<path d="M48.8545 24.8415L48.8545 0.752869L24.7659 0.752869L24.7659 24.8415L48.8545 24.8415Z" fill="black"/>
<path d="M34.7316 19.4889V9.32488H30.1143V6.11597H43.5017V9.32488H38.8843V19.4889H34.7316Z" fill="white"/>
<path d="M73.6162 0.758118H49.5276V24.8468H73.6162V0.758118Z" fill="black"/>
<path d="M59.0236 15.8299V19.4889H54.8708V6.11603H65.8044L68.2583 8.38114V13.5793L65.8044 15.8444H59.0236V15.8299ZM63.5393 9.32494H59.0236V12.6355H63.5393L64.1056 12.0692V9.89122L63.5393 9.32494Z" fill="white"/>
<path d="M104.558 17.0205C104.195 20.1423 101.582 22.2477 97.9517 22.2477C93.4796 22.2477 90.6772 19.2421 90.6772 14.6538C90.6772 10.0945 93.4941 7.05981 97.9517 7.05981C101.582 7.05981 104.05 9.07809 104.442 12.0402H100.536C100.231 10.9657 99.4183 10.3558 97.9808 10.3558C95.5414 10.3558 94.6122 12.3306 94.6122 14.6247C94.6122 16.9915 95.5705 18.9807 97.9808 18.9807C99.5199 18.9807 100.449 18.2547 100.682 17.006H104.558V17.0205Z" fill="black"/>
<path d="M109.539 1.44061V21.8702H105.604V1.44061H109.539Z" fill="black"/>
<path d="M120.269 20.636H119.703C118.86 21.6233 117.539 22.2332 115.651 22.2332C112.312 22.2332 110.395 20.0697 110.395 17.4271C110.395 15.1474 111.992 12.621 116.276 12.621H120.124V12.258C120.124 10.7624 119.281 10.0074 117.568 10.0074C116 10.0074 115.23 10.6027 115.129 11.5465H111.223C111.339 8.78769 113.837 7.04529 117.379 7.04529C121.285 7.04529 123.928 8.58441 123.928 12.4758V21.8702H120.269V20.636ZM120.124 16.0912V15.2491H117.031C115.347 15.2491 114.33 15.8734 114.33 17.1367C114.33 18.458 115.288 19.1259 116.886 19.1259C118.788 19.1259 120.124 17.8627 120.124 16.0912Z" fill="black"/>
<path d="M137.78 17.5432C137.78 19.9536 135.646 22.2332 131.377 22.2332C127.021 22.2332 124.857 20.2875 124.581 17.3109H128.487C128.69 18.6322 129.721 19.1985 131.348 19.1985C132.887 19.1985 133.845 18.6613 133.845 17.6304C133.845 16.643 133.177 16.28 131.653 16.0332L129.068 15.583C126.788 15.191 125.104 14.0149 125.104 11.59C125.104 9.15069 126.963 7.05981 131.231 7.05981C134.832 7.05981 137.054 8.83125 137.359 11.3868H133.453C133.279 10.3994 132.306 10.0945 131.086 10.0945C129.939 10.0945 129.039 10.5446 129.039 11.3287C129.039 12.0256 129.634 12.3451 130.781 12.5338L133.003 12.8968C135.921 13.3324 137.78 14.6538 137.78 17.5432Z" fill="black"/>
<path d="M150.848 17.5432C150.848 19.9536 148.714 22.2332 144.445 22.2332C140.089 22.2332 137.925 20.2875 137.649 17.3109H141.555C141.759 18.6322 142.789 19.1985 144.416 19.1985C145.955 19.1985 146.913 18.6613 146.913 17.6304C146.913 16.643 146.245 16.28 144.721 16.0332L142.136 15.583C139.856 15.191 138.172 14.0149 138.172 11.59C138.172 9.15069 140.031 7.05981 144.3 7.05981C147.901 7.05981 150.122 8.83125 150.427 11.3868H146.521C146.347 10.3994 145.374 10.0945 144.154 10.0945C143.007 10.0945 142.107 10.5446 142.107 11.3287C142.107 12.0256 142.702 12.3451 143.849 12.5338L146.071 12.8968C149.004 13.3324 150.848 14.6538 150.848 17.5432Z" fill="black"/>
<path d="M89.9513 14.6538C89.9513 13.3615 90.1836 12.2144 90.6047 11.198H86.1035V5.92725H82.459V11.198H77.2463V14.8425H82.459V19.9826H86.1035V14.8425H89.9658C89.9658 14.7844 89.9513 14.7264 89.9513 14.6538Z" fill="#FF395C"/>
</svg>
